<?xml version="1.0" standalone="no"?>
<!DOCTYPE svg PUBLIC "-//W3C//DTD SVG 20010904//EN"
 "http://www.w3.org/TR/2001/REC-SVG-20010904/DTD/svg10.dtd">
<svg version="1.0" xmlns="http://www.w3.org/2000/svg"
 width="16.000000pt" height="16.000000pt" viewBox="0 0 16.000000 16.000000"
 preserveAspectRatio="xMidYMid meet">

<g transform="translate(0.000000,16.000000) scale(0.100000,-0.100000)"
fill="#000000" stroke="none">
<path d="M44 118 c-24 -28 -29 -40 -26 -75 l3 -43 59 0 58 0 4 45 c3 40 -1 49
-27 75 -17 17 -33 30 -36 30 -3 0 -18 -15 -35 -32z m59 -12 c22 -17 24 -86 2
-86 -8 0 -15 7 -15 15 0 8 -4 15 -10 15 -5 0 -10 -7 -10 -15 0 -8 -7 -15 -15
-15 -22 0 -20 69 3 86 9 7 19 13 22 13 3 0 13 -6 23 -13z"/>
</g>
</svg>
