<?xml version="1.0" standalone="no"?>
<!DOCTYPE svg PUBLIC "-//W3C//DTD SVG 20010904//EN"
 "http://www.w3.org/TR/2001/REC-SVG-20010904/DTD/svg10.dtd">
<svg version="1.0" xmlns="http://www.w3.org/2000/svg"
 width="16.000000pt" height="16.000000pt" viewBox="0 0 16.000000 16.000000"
 preserveAspectRatio="xMidYMid meet">

<g transform="translate(0.000000,16.000000) scale(0.100000,-0.100000)"
fill="#000000" stroke="none">
<path d="M0 80 l0 -60 80 0 80 0 0 60 0 60 -80 0 -80 0 0 -60z m120 40 c0 -5
-9 -14 -21 -20 -16 -9 -26 -8 -45 5 -13 8 -24 18 -24 20 0 3 20 5 45 5 25 0
45 -4 45 -10z m-4 -20 l35 22 -3 -43 -3 -44 -65 0 -65 0 -3 44 -3 43 35 -22
36 -22 36 22z"/>
</g>
</svg>
