<?xml version="1.0" standalone="no"?>
<!DOCTYPE svg PUBLIC "-//W3C//DTD SVG 20010904//EN"
 "http://www.w3.org/TR/2001/REC-SVG-20010904/DTD/svg10.dtd">
<svg version="1.0" xmlns="http://www.w3.org/2000/svg"
 width="16.000000pt" height="16.000000pt" viewBox="0 0 16.000000 16.000000"
 preserveAspectRatio="xMidYMid meet">

<g transform="translate(0.000000,16.000000) scale(0.100000,-0.100000)"
fill="#000000" stroke="none">
<path d="M51 124 c-12 -15 -21 -35 -21 -45 0 -9 -3 -24 -6 -33 -4 -11 0 -16
13 -16 10 0 24 -5 31 -12 9 -9 15 -9 24 0 7 7 20 12 30 12 14 0 16 6 12 33 -6
34 -33 78 -51 84 -6 2 -20 -8 -32 -23z m47 -6 c7 -7 12 -25 12 -40 0 -24 -4
-28 -30 -28 -26 0 -30 4 -30 28 0 26 15 52 30 52 3 0 11 -5 18 -12z"/>
</g>
</svg>
