<?xml version="1.0" standalone="no"?>
<!DOCTYPE svg PUBLIC "-//W3C//DTD SVG 20010904//EN"
 "http://www.w3.org/TR/2001/REC-SVG-20010904/DTD/svg10.dtd">
<svg version="1.0" xmlns="http://www.w3.org/2000/svg"
 width="16.000000pt" height="16.000000pt" viewBox="0 0 16.000000 16.000000"
 preserveAspectRatio="xMidYMid meet">

<g transform="translate(0.000000,16.000000) scale(0.100000,-0.100000)"
fill="#000000" stroke="none">
<path d="M36 124 c-32 -31 -13 -74 33 -74 13 0 32 -7 42 -16 10 -9 20 -11 23
-6 3 5 -1 15 -9 22 -8 7 -15 24 -15 39 0 48 -42 68 -74 35z m59 -29 c0 -27 -3
-30 -30 -30 -21 0 -31 5 -33 18 -5 25 17 49 42 45 16 -2 21 -10 21 -33z"/>
</g>
</svg>
